<mxfile host="app.diagrams.net" modified="2024-01-30T16:40:28.325Z" agent="Mozilla/5.0 (Windows NT 10.0; Win64; x64; rv:122.0) Gecko/20100101 Firefox/122.0" etag="ADKhy0k9TbIfrK2LWdc8" version="23.0.2" type="device">
  <diagram name="Page-1" id="hcwU8oPMDGAtIEjc8EsR">
    <mxGraphModel dx="840" dy="424" grid="0" gridSize="10" guides="1" tooltips="1" connect="1" arrows="1" fold="1" page="1" pageScale="1" pageWidth="2339" pageHeight="3300" math="0" shadow="0">
      <root>
        <mxCell id="0" />
        <mxCell id="1" parent="0" />
        <mxCell id="XtzSiCUmQisljc_bNZya-8" value="&lt;b&gt;Product&lt;/b&gt;" style="swimlane;fontStyle=0;childLayout=stackLayout;horizontal=1;startSize=30;horizontalStack=0;resizeParent=1;resizeParentMax=0;resizeLast=0;collapsible=1;marginBottom=0;whiteSpace=wrap;html=1;fillColor=#dae8fc;strokeColor=#6c8ebf;" parent="1" vertex="1">
          <mxGeometry x="964" y="644" width="190" height="120" as="geometry" />
        </mxCell>
        <mxCell id="XtzSiCUmQisljc_bNZya-9" value="-Productcode" style="text;strokeColor=#6c8ebf;fillColor=#dae8fc;align=left;verticalAlign=middle;spacingLeft=4;spacingRight=4;overflow=hidden;points=[[0,0.5],[1,0.5]];portConstraint=eastwest;rotatable=0;whiteSpace=wrap;html=1;" parent="XtzSiCUmQisljc_bNZya-8" vertex="1">
          <mxGeometry y="30" width="190" height="30" as="geometry" />
        </mxCell>
        <mxCell id="XtzSiCUmQisljc_bNZya-10" value="-Productnaam" style="text;strokeColor=#6c8ebf;fillColor=#dae8fc;align=left;verticalAlign=middle;spacingLeft=4;spacingRight=4;overflow=hidden;points=[[0,0.5],[1,0.5]];portConstraint=eastwest;rotatable=0;whiteSpace=wrap;html=1;" parent="XtzSiCUmQisljc_bNZya-8" vertex="1">
          <mxGeometry y="60" width="190" height="30" as="geometry" />
        </mxCell>
        <mxCell id="XtzSiCUmQisljc_bNZya-11" value="-Prijs" style="text;strokeColor=#6c8ebf;fillColor=#dae8fc;align=left;verticalAlign=middle;spacingLeft=4;spacingRight=4;overflow=hidden;points=[[0,0.5],[1,0.5]];portConstraint=eastwest;rotatable=0;whiteSpace=wrap;html=1;" parent="XtzSiCUmQisljc_bNZya-8" vertex="1">
          <mxGeometry y="90" width="190" height="30" as="geometry" />
        </mxCell>
        <mxCell id="XtzSiCUmQisljc_bNZya-12" value="&lt;b&gt;Productgroep&lt;/b&gt;" style="swimlane;fontStyle=0;childLayout=stackLayout;horizontal=1;startSize=30;horizontalStack=0;resizeParent=1;resizeParentMax=0;resizeLast=0;collapsible=1;marginBottom=0;whiteSpace=wrap;html=1;fillColor=#dae8fc;strokeColor=#6c8ebf;" parent="1" vertex="1">
          <mxGeometry x="964" y="924" width="190" height="90" as="geometry" />
        </mxCell>
        <mxCell id="XtzSiCUmQisljc_bNZya-13" value="-Productgroepcode" style="text;strokeColor=#6c8ebf;fillColor=#dae8fc;align=left;verticalAlign=middle;spacingLeft=4;spacingRight=4;overflow=hidden;points=[[0,0.5],[1,0.5]];portConstraint=eastwest;rotatable=0;whiteSpace=wrap;html=1;" parent="XtzSiCUmQisljc_bNZya-12" vertex="1">
          <mxGeometry y="30" width="190" height="30" as="geometry" />
        </mxCell>
        <mxCell id="XtzSiCUmQisljc_bNZya-14" value="-Productgroepnaam" style="text;strokeColor=#6c8ebf;fillColor=#dae8fc;align=left;verticalAlign=middle;spacingLeft=4;spacingRight=4;overflow=hidden;points=[[0,0.5],[1,0.5]];portConstraint=eastwest;rotatable=0;whiteSpace=wrap;html=1;" parent="XtzSiCUmQisljc_bNZya-12" vertex="1">
          <mxGeometry y="60" width="190" height="30" as="geometry" />
        </mxCell>
        <mxCell id="XtzSiCUmQisljc_bNZya-16" value="&lt;b&gt;Afbeelding&lt;br&gt;&lt;/b&gt;" style="swimlane;fontStyle=0;childLayout=stackLayout;horizontal=1;startSize=30;horizontalStack=0;resizeParent=1;resizeParentMax=0;resizeLast=0;collapsible=1;marginBottom=0;whiteSpace=wrap;html=1;fillColor=#dae8fc;strokeColor=#6c8ebf;" parent="1" vertex="1">
          <mxGeometry x="1383" y="948" width="190" height="60" as="geometry" />
        </mxCell>
        <mxCell id="XtzSiCUmQisljc_bNZya-17" value="-Link naar plaatje" style="text;strokeColor=#6c8ebf;fillColor=#dae8fc;align=left;verticalAlign=middle;spacingLeft=4;spacingRight=4;overflow=hidden;points=[[0,0.5],[1,0.5]];portConstraint=eastwest;rotatable=0;whiteSpace=wrap;html=1;" parent="XtzSiCUmQisljc_bNZya-16" vertex="1">
          <mxGeometry y="30" width="190" height="30" as="geometry" />
        </mxCell>
        <mxCell id="XtzSiCUmQisljc_bNZya-28" value="&lt;div&gt;Kan hebben&lt;/div&gt;" style="text;strokeColor=none;fillColor=none;align=left;verticalAlign=middle;spacingLeft=4;spacingRight=4;overflow=hidden;points=[[0,0.5],[1,0.5]];portConstraint=eastwest;rotatable=0;whiteSpace=wrap;html=1;" parent="1" vertex="1">
          <mxGeometry x="1242" y="808" width="80" height="30" as="geometry" />
        </mxCell>
        <mxCell id="XtzSiCUmQisljc_bNZya-31" value="" style="endArrow=none;html=1;rounded=0;entryX=-0.05;entryY=-0.2;entryDx=0;entryDy=0;entryPerimeter=0;exitX=0.995;exitY=0.933;exitDx=0;exitDy=0;exitPerimeter=0;" parent="1" source="XtzSiCUmQisljc_bNZya-11" target="XtzSiCUmQisljc_bNZya-28" edge="1">
          <mxGeometry width="50" height="50" relative="1" as="geometry">
            <mxPoint x="1231" y="870" as="sourcePoint" />
            <mxPoint x="1281" y="820" as="targetPoint" />
          </mxGeometry>
        </mxCell>
        <mxCell id="XtzSiCUmQisljc_bNZya-32" value="" style="endArrow=none;html=1;rounded=0;entryX=0;entryY=0;entryDx=0;entryDy=0;exitX=0.5;exitY=1.133;exitDx=0;exitDy=0;exitPerimeter=0;" parent="1" source="XtzSiCUmQisljc_bNZya-28" target="XtzSiCUmQisljc_bNZya-16" edge="1">
          <mxGeometry width="50" height="50" relative="1" as="geometry">
            <mxPoint x="1231" y="870" as="sourcePoint" />
            <mxPoint x="1281" y="820" as="targetPoint" />
          </mxGeometry>
        </mxCell>
        <mxCell id="XtzSiCUmQisljc_bNZya-33" value="&lt;div&gt;Zit in&lt;/div&gt;" style="text;html=1;align=center;verticalAlign=middle;resizable=0;points=[];autosize=1;strokeColor=none;fillColor=none;" parent="1" vertex="1">
          <mxGeometry x="1019.5" y="827" width="42" height="26" as="geometry" />
        </mxCell>
        <mxCell id="XtzSiCUmQisljc_bNZya-34" value="" style="endArrow=none;html=1;rounded=0;entryX=0.442;entryY=1.067;entryDx=0;entryDy=0;entryPerimeter=0;exitX=0.607;exitY=-0.192;exitDx=0;exitDy=0;exitPerimeter=0;" parent="1" source="XtzSiCUmQisljc_bNZya-33" target="XtzSiCUmQisljc_bNZya-11" edge="1">
          <mxGeometry width="50" height="50" relative="1" as="geometry">
            <mxPoint x="1231" y="870" as="sourcePoint" />
            <mxPoint x="1281" y="820" as="targetPoint" />
          </mxGeometry>
        </mxCell>
        <mxCell id="XtzSiCUmQisljc_bNZya-35" value="" style="endArrow=none;html=1;rounded=0;entryX=0.4;entryY=0.022;entryDx=0;entryDy=0;entryPerimeter=0;exitX=0.583;exitY=0.962;exitDx=0;exitDy=0;exitPerimeter=0;" parent="1" source="XtzSiCUmQisljc_bNZya-33" target="XtzSiCUmQisljc_bNZya-12" edge="1">
          <mxGeometry width="50" height="50" relative="1" as="geometry">
            <mxPoint x="1231" y="870" as="sourcePoint" />
            <mxPoint x="1281" y="820" as="targetPoint" />
          </mxGeometry>
        </mxCell>
        <mxCell id="XtzSiCUmQisljc_bNZya-36" value="&lt;div&gt;Kan hebben&lt;/div&gt;" style="text;html=1;align=center;verticalAlign=middle;resizable=0;points=[];autosize=1;strokeColor=none;fillColor=none;" parent="1" vertex="1">
          <mxGeometry x="1222" y="961" width="80" height="26" as="geometry" />
        </mxCell>
        <mxCell id="XtzSiCUmQisljc_bNZya-37" value="" style="endArrow=none;html=1;rounded=0;entryX=1;entryY=0.5;entryDx=0;entryDy=0;exitX=-0.037;exitY=0.308;exitDx=0;exitDy=0;exitPerimeter=0;" parent="1" source="XtzSiCUmQisljc_bNZya-36" target="XtzSiCUmQisljc_bNZya-13" edge="1">
          <mxGeometry width="50" height="50" relative="1" as="geometry">
            <mxPoint x="1231" y="870" as="sourcePoint" />
            <mxPoint x="1281" y="820" as="targetPoint" />
          </mxGeometry>
        </mxCell>
        <mxCell id="XtzSiCUmQisljc_bNZya-38" value="" style="endArrow=none;html=1;rounded=0;entryX=1.038;entryY=0.577;entryDx=0;entryDy=0;entryPerimeter=0;exitX=-0.011;exitY=-0.067;exitDx=0;exitDy=0;exitPerimeter=0;" parent="1" source="XtzSiCUmQisljc_bNZya-17" target="XtzSiCUmQisljc_bNZya-36" edge="1">
          <mxGeometry width="50" height="50" relative="1" as="geometry">
            <mxPoint x="1231" y="870" as="sourcePoint" />
            <mxPoint x="1281" y="820" as="targetPoint" />
          </mxGeometry>
        </mxCell>
        <mxCell id="XtzSiCUmQisljc_bNZya-39" value="0...*" style="text;html=1;align=center;verticalAlign=middle;resizable=0;points=[];autosize=1;strokeColor=none;fillColor=none;" parent="1" vertex="1">
          <mxGeometry x="1156.5" y="737" width="39" height="26" as="geometry" />
        </mxCell>
        <mxCell id="XtzSiCUmQisljc_bNZya-40" value="&lt;div&gt;0...*&lt;/div&gt;" style="text;html=1;align=center;verticalAlign=middle;resizable=0;points=[];autosize=1;" parent="1" vertex="1">
          <mxGeometry x="1059.5" y="765" width="39" height="26" as="geometry" />
        </mxCell>
        <mxCell id="XtzSiCUmQisljc_bNZya-41" value="1..1" style="text;html=1;align=center;verticalAlign=middle;resizable=0;points=[];autosize=1;strokeColor=none;fillColor=none;" parent="1" vertex="1">
          <mxGeometry x="969.5" y="893" width="37" height="26" as="geometry" />
        </mxCell>
        <mxCell id="XtzSiCUmQisljc_bNZya-42" value="1..1" style="text;html=1;align=center;verticalAlign=middle;resizable=0;points=[];autosize=1;strokeColor=none;fillColor=none;" parent="1" vertex="1">
          <mxGeometry x="1114.5" y="889" width="37" height="26" as="geometry" />
        </mxCell>
        <mxCell id="XtzSiCUmQisljc_bNZya-43" value="0..*" style="text;html=1;align=center;verticalAlign=middle;resizable=0;points=[];autosize=1;strokeColor=none;fillColor=none;" parent="1" vertex="1">
          <mxGeometry x="1333.5" y="942" width="36" height="26" as="geometry" />
        </mxCell>
        <mxCell id="XtzSiCUmQisljc_bNZya-44" value="0..1" style="text;html=1;align=center;verticalAlign=middle;resizable=0;points=[];autosize=1;strokeColor=none;fillColor=none;" parent="1" vertex="1">
          <mxGeometry x="1329.5" y="989" width="37" height="26" as="geometry" />
        </mxCell>
        <mxCell id="aN7j8xaSBTlLXaEPuvaS-1" value="&lt;b&gt;Bestelling&lt;/b&gt;" style="swimlane;fontStyle=0;childLayout=stackLayout;horizontal=1;startSize=30;horizontalStack=0;resizeParent=1;resizeParentMax=0;resizeLast=0;collapsible=1;marginBottom=0;whiteSpace=wrap;html=1;fillColor=#dae8fc;strokeColor=#6c8ebf;" parent="1" vertex="1">
          <mxGeometry x="1363" y="635" width="190" height="120" as="geometry" />
        </mxCell>
        <mxCell id="aN7j8xaSBTlLXaEPuvaS-2" value="-Klant" style="text;strokeColor=#6c8ebf;fillColor=#dae8fc;align=left;verticalAlign=middle;spacingLeft=4;spacingRight=4;overflow=hidden;points=[[0,0.5],[1,0.5]];portConstraint=eastwest;rotatable=0;whiteSpace=wrap;html=1;" parent="aN7j8xaSBTlLXaEPuvaS-1" vertex="1">
          <mxGeometry y="30" width="190" height="30" as="geometry" />
        </mxCell>
        <mxCell id="aN7j8xaSBTlLXaEPuvaS-3" value="-Bestellingscode" style="text;strokeColor=#6c8ebf;fillColor=#dae8fc;align=left;verticalAlign=middle;spacingLeft=4;spacingRight=4;overflow=hidden;points=[[0,0.5],[1,0.5]];portConstraint=eastwest;rotatable=0;whiteSpace=wrap;html=1;" parent="aN7j8xaSBTlLXaEPuvaS-1" vertex="1">
          <mxGeometry y="60" width="190" height="30" as="geometry" />
        </mxCell>
        <mxCell id="aN7j8xaSBTlLXaEPuvaS-4" value="-Totaalprijs" style="text;strokeColor=#6c8ebf;fillColor=#dae8fc;align=left;verticalAlign=middle;spacingLeft=4;spacingRight=4;overflow=hidden;points=[[0,0.5],[1,0.5]];portConstraint=eastwest;rotatable=0;whiteSpace=wrap;html=1;" parent="aN7j8xaSBTlLXaEPuvaS-1" vertex="1">
          <mxGeometry y="90" width="190" height="30" as="geometry" />
        </mxCell>
        <mxCell id="aN7j8xaSBTlLXaEPuvaS-5" value="-Moment van bestelling" style="text;strokeColor=#6c8ebf;fillColor=#dae8fc;align=left;verticalAlign=middle;spacingLeft=4;spacingRight=4;overflow=hidden;points=[[0,0.5],[1,0.5]];portConstraint=eastwest;rotatable=0;whiteSpace=wrap;html=1;" parent="1" vertex="1">
          <mxGeometry x="1363" y="755" width="190" height="30" as="geometry" />
        </mxCell>
        <mxCell id="aN7j8xaSBTlLXaEPuvaS-7" value="" style="endArrow=none;html=1;rounded=0;exitX=0.987;exitY=0.017;exitDx=0;exitDy=0;exitPerimeter=0;" parent="1" source="XtzSiCUmQisljc_bNZya-9" edge="1">
          <mxGeometry width="50" height="50" relative="1" as="geometry">
            <mxPoint x="1182" y="709" as="sourcePoint" />
            <mxPoint x="1232" y="672" as="targetPoint" />
          </mxGeometry>
        </mxCell>
        <mxCell id="aN7j8xaSBTlLXaEPuvaS-8" value="Zit in" style="text;html=1;strokeColor=none;fillColor=none;align=center;verticalAlign=middle;whiteSpace=wrap;rounded=0;" parent="1" vertex="1">
          <mxGeometry x="1225" y="658" width="60" height="30" as="geometry" />
        </mxCell>
        <mxCell id="aN7j8xaSBTlLXaEPuvaS-10" value="" style="endArrow=none;html=1;rounded=0;exitX=1;exitY=0.5;exitDx=0;exitDy=0;entryX=0.005;entryY=0.233;entryDx=0;entryDy=0;entryPerimeter=0;" parent="1" source="aN7j8xaSBTlLXaEPuvaS-8" target="aN7j8xaSBTlLXaEPuvaS-2" edge="1">
          <mxGeometry width="50" height="50" relative="1" as="geometry">
            <mxPoint x="1282" y="660" as="sourcePoint" />
            <mxPoint x="1332" y="610" as="targetPoint" />
          </mxGeometry>
        </mxCell>
        <mxCell id="aN7j8xaSBTlLXaEPuvaS-12" value="1...*" style="text;html=1;align=center;verticalAlign=middle;resizable=0;points=[];autosize=1;strokeColor=none;fillColor=none;" parent="1" vertex="1">
          <mxGeometry x="1153.5" y="650" width="39" height="26" as="geometry" />
        </mxCell>
        <mxCell id="aN7j8xaSBTlLXaEPuvaS-13" value="0...1" style="text;html=1;align=center;verticalAlign=middle;resizable=0;points=[];autosize=1;strokeColor=none;fillColor=none;" parent="1" vertex="1">
          <mxGeometry x="1327.5" y="647" width="40" height="26" as="geometry" />
        </mxCell>
        <mxCell id="fVzrqugEwrlbRKcadym2-2" value="&lt;b&gt;Klant&lt;/b&gt;" style="swimlane;fontStyle=0;childLayout=stackLayout;horizontal=1;startSize=30;horizontalStack=0;resizeParent=1;resizeParentMax=0;resizeLast=0;collapsible=1;marginBottom=0;whiteSpace=wrap;html=1;fillColor=#dae8fc;strokeColor=#6c8ebf;" vertex="1" parent="1">
          <mxGeometry x="1709" y="633" width="190" height="120" as="geometry" />
        </mxCell>
        <mxCell id="fVzrqugEwrlbRKcadym2-3" value="-Naam" style="text;strokeColor=#6c8ebf;fillColor=#dae8fc;align=left;verticalAlign=middle;spacingLeft=4;spacingRight=4;overflow=hidden;points=[[0,0.5],[1,0.5]];portConstraint=eastwest;rotatable=0;whiteSpace=wrap;html=1;" vertex="1" parent="fVzrqugEwrlbRKcadym2-2">
          <mxGeometry y="30" width="190" height="30" as="geometry" />
        </mxCell>
        <mxCell id="fVzrqugEwrlbRKcadym2-4" value="-Gebruikersnaam" style="text;strokeColor=#6c8ebf;fillColor=#dae8fc;align=left;verticalAlign=middle;spacingLeft=4;spacingRight=4;overflow=hidden;points=[[0,0.5],[1,0.5]];portConstraint=eastwest;rotatable=0;whiteSpace=wrap;html=1;" vertex="1" parent="fVzrqugEwrlbRKcadym2-2">
          <mxGeometry y="60" width="190" height="30" as="geometry" />
        </mxCell>
        <mxCell id="fVzrqugEwrlbRKcadym2-5" value="-Postcode" style="text;strokeColor=#6c8ebf;fillColor=#dae8fc;align=left;verticalAlign=middle;spacingLeft=4;spacingRight=4;overflow=hidden;points=[[0,0.5],[1,0.5]];portConstraint=eastwest;rotatable=0;whiteSpace=wrap;html=1;" vertex="1" parent="fVzrqugEwrlbRKcadym2-2">
          <mxGeometry y="90" width="190" height="30" as="geometry" />
        </mxCell>
        <mxCell id="fVzrqugEwrlbRKcadym2-6" value="-Straat" style="text;strokeColor=#6c8ebf;fillColor=#dae8fc;align=left;verticalAlign=middle;spacingLeft=4;spacingRight=4;overflow=hidden;points=[[0,0.5],[1,0.5]];portConstraint=eastwest;rotatable=0;whiteSpace=wrap;html=1;" vertex="1" parent="1">
          <mxGeometry x="1709" y="753" width="190" height="30" as="geometry" />
        </mxCell>
        <mxCell id="fVzrqugEwrlbRKcadym2-7" value="-Huisnummer" style="text;strokeColor=#6c8ebf;fillColor=#dae8fc;align=left;verticalAlign=middle;spacingLeft=4;spacingRight=4;overflow=hidden;points=[[0,0.5],[1,0.5]];portConstraint=eastwest;rotatable=0;whiteSpace=wrap;html=1;" vertex="1" parent="1">
          <mxGeometry x="1709" y="783" width="190" height="30" as="geometry" />
        </mxCell>
        <mxCell id="fVzrqugEwrlbRKcadym2-8" value="-Land" style="text;strokeColor=#6c8ebf;fillColor=#dae8fc;align=left;verticalAlign=middle;spacingLeft=4;spacingRight=4;overflow=hidden;points=[[0,0.5],[1,0.5]];portConstraint=eastwest;rotatable=0;whiteSpace=wrap;html=1;" vertex="1" parent="1">
          <mxGeometry x="1709" y="813" width="190" height="30" as="geometry" />
        </mxCell>
        <mxCell id="fVzrqugEwrlbRKcadym2-9" value="-Telefoonnummer" style="text;strokeColor=#6c8ebf;fillColor=#dae8fc;align=left;verticalAlign=middle;spacingLeft=4;spacingRight=4;overflow=hidden;points=[[0,0.5],[1,0.5]];portConstraint=eastwest;rotatable=0;whiteSpace=wrap;html=1;" vertex="1" parent="1">
          <mxGeometry x="1709" y="843" width="190" height="30" as="geometry" />
        </mxCell>
        <mxCell id="fVzrqugEwrlbRKcadym2-10" value="-Wachtwoord" style="text;strokeColor=#6c8ebf;fillColor=#dae8fc;align=left;verticalAlign=middle;spacingLeft=4;spacingRight=4;overflow=hidden;points=[[0,0.5],[1,0.5]];portConstraint=eastwest;rotatable=0;whiteSpace=wrap;html=1;" vertex="1" parent="1">
          <mxGeometry x="1709" y="873" width="190" height="30" as="geometry" />
        </mxCell>
        <mxCell id="fVzrqugEwrlbRKcadym2-11" value="Is Gemaakt door" style="text;html=1;strokeColor=none;fillColor=none;align=center;verticalAlign=middle;whiteSpace=wrap;rounded=0;" vertex="1" parent="1">
          <mxGeometry x="1598" y="658" width="77" height="30" as="geometry" />
        </mxCell>
        <mxCell id="fVzrqugEwrlbRKcadym2-12" value="" style="endArrow=none;html=1;rounded=0;entryX=1;entryY=0.5;entryDx=0;entryDy=0;exitX=0;exitY=0.333;exitDx=0;exitDy=0;exitPerimeter=0;" edge="1" parent="1" source="fVzrqugEwrlbRKcadym2-3" target="fVzrqugEwrlbRKcadym2-11">
          <mxGeometry width="50" height="50" relative="1" as="geometry">
            <mxPoint x="1704" y="673" as="sourcePoint" />
            <mxPoint x="1657" y="745" as="targetPoint" />
          </mxGeometry>
        </mxCell>
        <mxCell id="fVzrqugEwrlbRKcadym2-13" value="" style="endArrow=none;html=1;rounded=0;entryX=0;entryY=0.5;entryDx=0;entryDy=0;exitX=0.999;exitY=0.248;exitDx=0;exitDy=0;exitPerimeter=0;" edge="1" parent="1" source="aN7j8xaSBTlLXaEPuvaS-2" target="fVzrqugEwrlbRKcadym2-11">
          <mxGeometry width="50" height="50" relative="1" as="geometry">
            <mxPoint x="1607" y="795" as="sourcePoint" />
            <mxPoint x="1657" y="745" as="targetPoint" />
          </mxGeometry>
        </mxCell>
        <mxCell id="fVzrqugEwrlbRKcadym2-14" value="&lt;b&gt;Kortingscode&lt;/b&gt;" style="swimlane;fontStyle=0;childLayout=stackLayout;horizontal=1;startSize=30;horizontalStack=0;resizeParent=1;resizeParentMax=0;resizeLast=0;collapsible=1;marginBottom=0;whiteSpace=wrap;html=1;fillColor=#dae8fc;strokeColor=#6c8ebf;" vertex="1" parent="1">
          <mxGeometry x="1369.5" y="376" width="190" height="120" as="geometry" />
        </mxCell>
        <mxCell id="fVzrqugEwrlbRKcadym2-15" value="-Codenaam" style="text;strokeColor=#6c8ebf;fillColor=#dae8fc;align=left;verticalAlign=middle;spacingLeft=4;spacingRight=4;overflow=hidden;points=[[0,0.5],[1,0.5]];portConstraint=eastwest;rotatable=0;whiteSpace=wrap;html=1;" vertex="1" parent="fVzrqugEwrlbRKcadym2-14">
          <mxGeometry y="30" width="190" height="30" as="geometry" />
        </mxCell>
        <mxCell id="fVzrqugEwrlbRKcadym2-16" value="-Kortingspercentage" style="text;strokeColor=#6c8ebf;fillColor=#dae8fc;align=left;verticalAlign=middle;spacingLeft=4;spacingRight=4;overflow=hidden;points=[[0,0.5],[1,0.5]];portConstraint=eastwest;rotatable=0;whiteSpace=wrap;html=1;" vertex="1" parent="fVzrqugEwrlbRKcadym2-14">
          <mxGeometry y="60" width="190" height="30" as="geometry" />
        </mxCell>
        <mxCell id="fVzrqugEwrlbRKcadym2-17" value="-Verloopdatum" style="text;strokeColor=#6c8ebf;fillColor=#dae8fc;align=left;verticalAlign=middle;spacingLeft=4;spacingRight=4;overflow=hidden;points=[[0,0.5],[1,0.5]];portConstraint=eastwest;rotatable=0;whiteSpace=wrap;html=1;" vertex="1" parent="fVzrqugEwrlbRKcadym2-14">
          <mxGeometry y="90" width="190" height="30" as="geometry" />
        </mxCell>
        <mxCell id="fVzrqugEwrlbRKcadym2-19" value="Wordt gebruikt in" style="text;html=1;strokeColor=none;fillColor=none;align=center;verticalAlign=middle;whiteSpace=wrap;rounded=0;" vertex="1" parent="1">
          <mxGeometry x="1431" y="542" width="60" height="30" as="geometry" />
        </mxCell>
        <mxCell id="fVzrqugEwrlbRKcadym2-20" value="" style="endArrow=none;html=1;rounded=0;entryX=0.5;entryY=1;entryDx=0;entryDy=0;" edge="1" parent="1">
          <mxGeometry width="50" height="50" relative="1" as="geometry">
            <mxPoint x="1464.64" y="547" as="sourcePoint" />
            <mxPoint x="1464.14" y="496" as="targetPoint" />
          </mxGeometry>
        </mxCell>
        <mxCell id="fVzrqugEwrlbRKcadym2-23" value="" style="endArrow=none;html=1;rounded=0;exitX=0.556;exitY=-0.015;exitDx=0;exitDy=0;entryX=0.614;entryY=1.133;entryDx=0;entryDy=0;entryPerimeter=0;exitPerimeter=0;" edge="1" parent="1">
          <mxGeometry width="50" height="50" relative="1" as="geometry">
            <mxPoint x="1464.9000000000003" y="633" as="sourcePoint" />
            <mxPoint x="1464.0999999999997" y="575.79" as="targetPoint" />
          </mxGeometry>
        </mxCell>
        <mxCell id="fVzrqugEwrlbRKcadym2-24" value="&lt;b&gt;Aanbevelinggroep&lt;/b&gt;" style="swimlane;fontStyle=0;childLayout=stackLayout;horizontal=1;startSize=30;horizontalStack=0;resizeParent=1;resizeParentMax=0;resizeLast=0;collapsible=1;marginBottom=0;whiteSpace=wrap;html=1;fillColor=#dae8fc;strokeColor=#6c8ebf;" vertex="1" parent="1">
          <mxGeometry x="588" y="645" width="190" height="120" as="geometry" />
        </mxCell>
        <mxCell id="fVzrqugEwrlbRKcadym2-25" value="-Groepid" style="text;strokeColor=#6c8ebf;fillColor=#dae8fc;align=left;verticalAlign=middle;spacingLeft=4;spacingRight=4;overflow=hidden;points=[[0,0.5],[1,0.5]];portConstraint=eastwest;rotatable=0;whiteSpace=wrap;html=1;" vertex="1" parent="fVzrqugEwrlbRKcadym2-24">
          <mxGeometry y="30" width="190" height="30" as="geometry" />
        </mxCell>
        <mxCell id="fVzrqugEwrlbRKcadym2-26" value="-Groepsnaam&lt;span style=&quot;white-space: pre;&quot;&gt;&#x9;&lt;/span&gt;" style="text;strokeColor=#6c8ebf;fillColor=#dae8fc;align=left;verticalAlign=middle;spacingLeft=4;spacingRight=4;overflow=hidden;points=[[0,0.5],[1,0.5]];portConstraint=eastwest;rotatable=0;whiteSpace=wrap;html=1;" vertex="1" parent="fVzrqugEwrlbRKcadym2-24">
          <mxGeometry y="60" width="190" height="30" as="geometry" />
        </mxCell>
        <mxCell id="fVzrqugEwrlbRKcadym2-27" value="-Aanbeveling 1" style="text;strokeColor=#6c8ebf;fillColor=#dae8fc;align=left;verticalAlign=middle;spacingLeft=4;spacingRight=4;overflow=hidden;points=[[0,0.5],[1,0.5]];portConstraint=eastwest;rotatable=0;whiteSpace=wrap;html=1;" vertex="1" parent="fVzrqugEwrlbRKcadym2-24">
          <mxGeometry y="90" width="190" height="30" as="geometry" />
        </mxCell>
        <mxCell id="fVzrqugEwrlbRKcadym2-28" value="-Aanbeveling 2" style="text;strokeColor=#6c8ebf;fillColor=#dae8fc;align=left;verticalAlign=middle;spacingLeft=4;spacingRight=4;overflow=hidden;points=[[0,0.5],[1,0.5]];portConstraint=eastwest;rotatable=0;whiteSpace=wrap;html=1;" vertex="1" parent="1">
          <mxGeometry x="588" y="765" width="190" height="30" as="geometry" />
        </mxCell>
        <mxCell id="fVzrqugEwrlbRKcadym2-29" value="-Aanbeveling 3" style="text;strokeColor=#6c8ebf;fillColor=#dae8fc;align=left;verticalAlign=middle;spacingLeft=4;spacingRight=4;overflow=hidden;points=[[0,0.5],[1,0.5]];portConstraint=eastwest;rotatable=0;whiteSpace=wrap;html=1;" vertex="1" parent="1">
          <mxGeometry x="588" y="795" width="190" height="30" as="geometry" />
        </mxCell>
        <mxCell id="fVzrqugEwrlbRKcadym2-30" value="-Aanbeveling 4" style="text;strokeColor=#6c8ebf;fillColor=#dae8fc;align=left;verticalAlign=middle;spacingLeft=4;spacingRight=4;overflow=hidden;points=[[0,0.5],[1,0.5]];portConstraint=eastwest;rotatable=0;whiteSpace=wrap;html=1;" vertex="1" parent="1">
          <mxGeometry x="588" y="825" width="190" height="30" as="geometry" />
        </mxCell>
        <mxCell id="fVzrqugEwrlbRKcadym2-33" value="" style="endArrow=none;html=1;rounded=0;entryX=1;entryY=0.25;entryDx=0;entryDy=0;" edge="1" parent="1">
          <mxGeometry width="50" height="50" relative="1" as="geometry">
            <mxPoint x="964" y="691.07" as="sourcePoint" />
            <mxPoint x="907.0000000000002" y="690.57" as="targetPoint" />
          </mxGeometry>
        </mxCell>
        <mxCell id="fVzrqugEwrlbRKcadym2-34" value="Bestaat uit" style="text;html=1;strokeColor=none;fillColor=none;align=center;verticalAlign=middle;whiteSpace=wrap;rounded=0;" vertex="1" parent="1">
          <mxGeometry x="843" y="676" width="64" height="30" as="geometry" />
        </mxCell>
        <mxCell id="fVzrqugEwrlbRKcadym2-35" value="" style="endArrow=none;html=1;rounded=0;entryX=1;entryY=0.25;entryDx=0;entryDy=0;" edge="1" parent="1">
          <mxGeometry width="50" height="50" relative="1" as="geometry">
            <mxPoint x="846" y="690.57" as="sourcePoint" />
            <mxPoint x="789" y="690.57" as="targetPoint" />
          </mxGeometry>
        </mxCell>
        <mxCell id="fVzrqugEwrlbRKcadym2-36" value="&lt;b&gt;Facatuur&lt;/b&gt;" style="swimlane;fontStyle=0;childLayout=stackLayout;horizontal=1;startSize=30;horizontalStack=0;resizeParent=1;resizeParentMax=0;resizeLast=0;collapsible=1;marginBottom=0;whiteSpace=wrap;html=1;fillColor=#dae8fc;strokeColor=#6c8ebf;" vertex="1" parent="1">
          <mxGeometry x="966.5" y="376" width="190" height="120" as="geometry" />
        </mxCell>
        <mxCell id="fVzrqugEwrlbRKcadym2-37" value="-Invoiceid" style="text;strokeColor=#6c8ebf;fillColor=#dae8fc;align=left;verticalAlign=middle;spacingLeft=4;spacingRight=4;overflow=hidden;points=[[0,0.5],[1,0.5]];portConstraint=eastwest;rotatable=0;whiteSpace=wrap;html=1;" vertex="1" parent="fVzrqugEwrlbRKcadym2-36">
          <mxGeometry y="30" width="190" height="30" as="geometry" />
        </mxCell>
        <mxCell id="fVzrqugEwrlbRKcadym2-38" value="-Klantid" style="text;strokeColor=#6c8ebf;fillColor=#dae8fc;align=left;verticalAlign=middle;spacingLeft=4;spacingRight=4;overflow=hidden;points=[[0,0.5],[1,0.5]];portConstraint=eastwest;rotatable=0;whiteSpace=wrap;html=1;" vertex="1" parent="fVzrqugEwrlbRKcadym2-36">
          <mxGeometry y="60" width="190" height="30" as="geometry" />
        </mxCell>
        <mxCell id="fVzrqugEwrlbRKcadym2-39" value="-Bestellingid" style="text;strokeColor=#6c8ebf;fillColor=#dae8fc;align=left;verticalAlign=middle;spacingLeft=4;spacingRight=4;overflow=hidden;points=[[0,0.5],[1,0.5]];portConstraint=eastwest;rotatable=0;whiteSpace=wrap;html=1;" vertex="1" parent="fVzrqugEwrlbRKcadym2-36">
          <mxGeometry y="90" width="190" height="30" as="geometry" />
        </mxCell>
        <mxCell id="fVzrqugEwrlbRKcadym2-40" value="" style="endArrow=none;html=1;rounded=0;entryX=1;entryY=1;entryDx=0;entryDy=0;exitX=0.165;exitY=-0.097;exitDx=0;exitDy=0;exitPerimeter=0;" edge="1" parent="1" source="fVzrqugEwrlbRKcadym2-41" target="fVzrqugEwrlbRKcadym2-36">
          <mxGeometry width="50" height="50" relative="1" as="geometry">
            <mxPoint x="1131" y="574" as="sourcePoint" />
            <mxPoint x="1181" y="524" as="targetPoint" />
          </mxGeometry>
        </mxCell>
        <mxCell id="fVzrqugEwrlbRKcadym2-41" value="Hoort bij" style="text;html=1;strokeColor=none;fillColor=none;align=center;verticalAlign=middle;whiteSpace=wrap;rounded=0;" vertex="1" parent="1">
          <mxGeometry x="1211" y="548" width="60" height="30" as="geometry" />
        </mxCell>
        <mxCell id="fVzrqugEwrlbRKcadym2-42" value="" style="endArrow=none;html=1;rounded=0;entryX=1;entryY=1;entryDx=0;entryDy=0;exitX=0.912;exitY=0.231;exitDx=0;exitDy=0;exitPerimeter=0;" edge="1" parent="1" source="aN7j8xaSBTlLXaEPuvaS-13">
          <mxGeometry width="50" height="50" relative="1" as="geometry">
            <mxPoint x="1327.5" y="625" as="sourcePoint" />
            <mxPoint x="1263.5" y="576" as="targetPoint" />
          </mxGeometry>
        </mxCell>
        <mxCell id="fVzrqugEwrlbRKcadym2-44" value="&lt;b&gt;Winkelmandje&lt;/b&gt;" style="swimlane;fontStyle=0;childLayout=stackLayout;horizontal=1;startSize=30;horizontalStack=0;resizeParent=1;resizeParentMax=0;resizeLast=0;collapsible=1;marginBottom=0;whiteSpace=wrap;html=1;fillColor=#dae8fc;strokeColor=#6c8ebf;" vertex="1" parent="1">
          <mxGeometry x="1997" y="27" width="190" height="90" as="geometry" />
        </mxCell>
        <mxCell id="fVzrqugEwrlbRKcadym2-46" value="-Subtotaal " style="text;strokeColor=#6c8ebf;fillColor=#dae8fc;align=left;verticalAlign=middle;spacingLeft=4;spacingRight=4;overflow=hidden;points=[[0,0.5],[1,0.5]];portConstraint=eastwest;rotatable=0;whiteSpace=wrap;html=1;" vertex="1" parent="fVzrqugEwrlbRKcadym2-44">
          <mxGeometry y="30" width="190" height="30" as="geometry" />
        </mxCell>
        <mxCell id="fVzrqugEwrlbRKcadym2-47" value="-Verzendkosten" style="text;strokeColor=#6c8ebf;fillColor=#dae8fc;align=left;verticalAlign=middle;spacingLeft=4;spacingRight=4;overflow=hidden;points=[[0,0.5],[1,0.5]];portConstraint=eastwest;rotatable=0;whiteSpace=wrap;html=1;" vertex="1" parent="fVzrqugEwrlbRKcadym2-44">
          <mxGeometry y="60" width="190" height="30" as="geometry" />
        </mxCell>
        <mxCell id="fVzrqugEwrlbRKcadym2-48" value="-Totaalprijs" style="text;strokeColor=#6c8ebf;fillColor=#dae8fc;align=left;verticalAlign=middle;spacingLeft=4;spacingRight=4;overflow=hidden;points=[[0,0.5],[1,0.5]];portConstraint=eastwest;rotatable=0;whiteSpace=wrap;html=1;" vertex="1" parent="1">
          <mxGeometry x="1997" y="147" width="190" height="30" as="geometry" />
        </mxCell>
        <mxCell id="fVzrqugEwrlbRKcadym2-49" value="-Kortingscode" style="text;strokeColor=#6c8ebf;fillColor=#dae8fc;align=left;verticalAlign=middle;spacingLeft=4;spacingRight=4;overflow=hidden;points=[[0,0.5],[1,0.5]];portConstraint=eastwest;rotatable=0;whiteSpace=wrap;html=1;" vertex="1" parent="1">
          <mxGeometry x="1997" y="117" width="190" height="30" as="geometry" />
        </mxCell>
        <mxCell id="fVzrqugEwrlbRKcadym2-50" value="" style="text;strokeColor=#6c8ebf;fillColor=#dae8fc;align=left;verticalAlign=middle;spacingLeft=4;spacingRight=4;overflow=hidden;points=[[0,0.5],[1,0.5]];portConstraint=eastwest;rotatable=0;whiteSpace=wrap;html=1;" vertex="1" parent="1">
          <mxGeometry x="1997" y="177" width="190" height="30" as="geometry" />
        </mxCell>
        <mxCell id="fVzrqugEwrlbRKcadym2-51" value="" style="text;strokeColor=#6c8ebf;fillColor=#dae8fc;align=left;verticalAlign=middle;spacingLeft=4;spacingRight=4;overflow=hidden;points=[[0,0.5],[1,0.5]];portConstraint=eastwest;rotatable=0;whiteSpace=wrap;html=1;" vertex="1" parent="1">
          <mxGeometry x="1997" y="207" width="190" height="30" as="geometry" />
        </mxCell>
        <mxCell id="fVzrqugEwrlbRKcadym2-52" value="" style="text;strokeColor=#6c8ebf;fillColor=#dae8fc;align=left;verticalAlign=middle;spacingLeft=4;spacingRight=4;overflow=hidden;points=[[0,0.5],[1,0.5]];portConstraint=eastwest;rotatable=0;whiteSpace=wrap;html=1;" vertex="1" parent="1">
          <mxGeometry x="1997" y="237" width="190" height="30" as="geometry" />
        </mxCell>
        <mxCell id="fVzrqugEwrlbRKcadym2-57" value="&lt;b&gt;Accounts&lt;/b&gt;" style="swimlane;fontStyle=0;childLayout=stackLayout;horizontal=1;startSize=30;horizontalStack=0;resizeParent=1;resizeParentMax=0;resizeLast=0;collapsible=1;marginBottom=0;whiteSpace=wrap;html=1;fillColor=#dae8fc;strokeColor=#6c8ebf;" vertex="1" parent="1">
          <mxGeometry x="1725" y="11" width="190" height="120" as="geometry" />
        </mxCell>
        <mxCell id="fVzrqugEwrlbRKcadym2-58" value="-Voornaam" style="text;strokeColor=#6c8ebf;fillColor=#dae8fc;align=left;verticalAlign=middle;spacingLeft=4;spacingRight=4;overflow=hidden;points=[[0,0.5],[1,0.5]];portConstraint=eastwest;rotatable=0;whiteSpace=wrap;html=1;" vertex="1" parent="fVzrqugEwrlbRKcadym2-57">
          <mxGeometry y="30" width="190" height="30" as="geometry" />
        </mxCell>
        <mxCell id="fVzrqugEwrlbRKcadym2-59" value="-Tussenvoegsel" style="text;strokeColor=#6c8ebf;fillColor=#dae8fc;align=left;verticalAlign=middle;spacingLeft=4;spacingRight=4;overflow=hidden;points=[[0,0.5],[1,0.5]];portConstraint=eastwest;rotatable=0;whiteSpace=wrap;html=1;" vertex="1" parent="fVzrqugEwrlbRKcadym2-57">
          <mxGeometry y="60" width="190" height="30" as="geometry" />
        </mxCell>
        <mxCell id="fVzrqugEwrlbRKcadym2-60" value="-Achternaam" style="text;strokeColor=#6c8ebf;fillColor=#dae8fc;align=left;verticalAlign=middle;spacingLeft=4;spacingRight=4;overflow=hidden;points=[[0,0.5],[1,0.5]];portConstraint=eastwest;rotatable=0;whiteSpace=wrap;html=1;" vertex="1" parent="fVzrqugEwrlbRKcadym2-57">
          <mxGeometry y="90" width="190" height="30" as="geometry" />
        </mxCell>
        <mxCell id="fVzrqugEwrlbRKcadym2-61" value="-Email" style="text;strokeColor=#6c8ebf;fillColor=#dae8fc;align=left;verticalAlign=middle;spacingLeft=4;spacingRight=4;overflow=hidden;points=[[0,0.5],[1,0.5]];portConstraint=eastwest;rotatable=0;whiteSpace=wrap;html=1;" vertex="1" parent="1">
          <mxGeometry x="1725" y="161" width="190" height="30" as="geometry" />
        </mxCell>
        <mxCell id="fVzrqugEwrlbRKcadym2-62" value="-Gebruikersnaam" style="text;strokeColor=#6c8ebf;fillColor=#dae8fc;align=left;verticalAlign=middle;spacingLeft=4;spacingRight=4;overflow=hidden;points=[[0,0.5],[1,0.5]];portConstraint=eastwest;rotatable=0;whiteSpace=wrap;html=1;" vertex="1" parent="1">
          <mxGeometry x="1725" y="131" width="190" height="30" as="geometry" />
        </mxCell>
        <mxCell id="fVzrqugEwrlbRKcadym2-63" value="-Postcode" style="text;strokeColor=#6c8ebf;fillColor=#dae8fc;align=left;verticalAlign=middle;spacingLeft=4;spacingRight=4;overflow=hidden;points=[[0,0.5],[1,0.5]];portConstraint=eastwest;rotatable=0;whiteSpace=wrap;html=1;" vertex="1" parent="1">
          <mxGeometry x="1725" y="191" width="190" height="30" as="geometry" />
        </mxCell>
        <mxCell id="fVzrqugEwrlbRKcadym2-64" value="-Adres" style="text;strokeColor=#6c8ebf;fillColor=#dae8fc;align=left;verticalAlign=middle;spacingLeft=4;spacingRight=4;overflow=hidden;points=[[0,0.5],[1,0.5]];portConstraint=eastwest;rotatable=0;whiteSpace=wrap;html=1;" vertex="1" parent="1">
          <mxGeometry x="1725" y="221" width="190" height="30" as="geometry" />
        </mxCell>
        <mxCell id="fVzrqugEwrlbRKcadym2-65" value="-Land" style="text;strokeColor=#6c8ebf;fillColor=#dae8fc;align=left;verticalAlign=middle;spacingLeft=4;spacingRight=4;overflow=hidden;points=[[0,0.5],[1,0.5]];portConstraint=eastwest;rotatable=0;whiteSpace=wrap;html=1;" vertex="1" parent="1">
          <mxGeometry x="1725" y="251" width="190" height="30" as="geometry" />
        </mxCell>
        <mxCell id="fVzrqugEwrlbRKcadym2-66" value="-Telefoonnummer" style="text;strokeColor=#6c8ebf;fillColor=#dae8fc;align=left;verticalAlign=middle;spacingLeft=4;spacingRight=4;overflow=hidden;points=[[0,0.5],[1,0.5]];portConstraint=eastwest;rotatable=0;whiteSpace=wrap;html=1;" vertex="1" parent="1">
          <mxGeometry x="1725" y="281" width="190" height="30" as="geometry" />
        </mxCell>
        <mxCell id="fVzrqugEwrlbRKcadym2-67" value="-Wachtwoord hash" style="text;strokeColor=#6c8ebf;fillColor=#dae8fc;align=left;verticalAlign=middle;spacingLeft=4;spacingRight=4;overflow=hidden;points=[[0,0.5],[1,0.5]];portConstraint=eastwest;rotatable=0;whiteSpace=wrap;html=1;" vertex="1" parent="1">
          <mxGeometry x="1725" y="311" width="190" height="30" as="geometry" />
        </mxCell>
        <mxCell id="fVzrqugEwrlbRKcadym2-71" value="&lt;b&gt;Reviews&lt;/b&gt;" style="swimlane;fontStyle=0;childLayout=stackLayout;horizontal=1;startSize=30;horizontalStack=0;resizeParent=1;resizeParentMax=0;resizeLast=0;collapsible=1;marginBottom=0;whiteSpace=wrap;html=1;fillColor=#dae8fc;strokeColor=#6c8ebf;" vertex="1" parent="1">
          <mxGeometry x="2007" y="351" width="190" height="120" as="geometry" />
        </mxCell>
        <mxCell id="fVzrqugEwrlbRKcadym2-72" value="-Hoeveelheid sterren" style="text;strokeColor=#6c8ebf;fillColor=#dae8fc;align=left;verticalAlign=middle;spacingLeft=4;spacingRight=4;overflow=hidden;points=[[0,0.5],[1,0.5]];portConstraint=eastwest;rotatable=0;whiteSpace=wrap;html=1;" vertex="1" parent="fVzrqugEwrlbRKcadym2-71">
          <mxGeometry y="30" width="190" height="30" as="geometry" />
        </mxCell>
        <mxCell id="fVzrqugEwrlbRKcadym2-73" value="-" style="text;strokeColor=#6c8ebf;fillColor=#dae8fc;align=left;verticalAlign=middle;spacingLeft=4;spacingRight=4;overflow=hidden;points=[[0,0.5],[1,0.5]];portConstraint=eastwest;rotatable=0;whiteSpace=wrap;html=1;" vertex="1" parent="fVzrqugEwrlbRKcadym2-71">
          <mxGeometry y="60" width="190" height="30" as="geometry" />
        </mxCell>
        <mxCell id="fVzrqugEwrlbRKcadym2-74" value="" style="text;strokeColor=#6c8ebf;fillColor=#dae8fc;align=left;verticalAlign=middle;spacingLeft=4;spacingRight=4;overflow=hidden;points=[[0,0.5],[1,0.5]];portConstraint=eastwest;rotatable=0;whiteSpace=wrap;html=1;" vertex="1" parent="fVzrqugEwrlbRKcadym2-71">
          <mxGeometry y="90" width="190" height="30" as="geometry" />
        </mxCell>
        <mxCell id="fVzrqugEwrlbRKcadym2-75" value="" style="text;strokeColor=#6c8ebf;fillColor=#dae8fc;align=left;verticalAlign=middle;spacingLeft=4;spacingRight=4;overflow=hidden;points=[[0,0.5],[1,0.5]];portConstraint=eastwest;rotatable=0;whiteSpace=wrap;html=1;" vertex="1" parent="1">
          <mxGeometry x="2007" y="501" width="190" height="30" as="geometry" />
        </mxCell>
        <mxCell id="fVzrqugEwrlbRKcadym2-76" value="" style="text;strokeColor=#6c8ebf;fillColor=#dae8fc;align=left;verticalAlign=middle;spacingLeft=4;spacingRight=4;overflow=hidden;points=[[0,0.5],[1,0.5]];portConstraint=eastwest;rotatable=0;whiteSpace=wrap;html=1;" vertex="1" parent="1">
          <mxGeometry x="2007" y="471" width="190" height="30" as="geometry" />
        </mxCell>
        <mxCell id="fVzrqugEwrlbRKcadym2-77" value="" style="text;strokeColor=#6c8ebf;fillColor=#dae8fc;align=left;verticalAlign=middle;spacingLeft=4;spacingRight=4;overflow=hidden;points=[[0,0.5],[1,0.5]];portConstraint=eastwest;rotatable=0;whiteSpace=wrap;html=1;" vertex="1" parent="1">
          <mxGeometry x="2007" y="531" width="190" height="30" as="geometry" />
        </mxCell>
        <mxCell id="fVzrqugEwrlbRKcadym2-78" value="" style="text;strokeColor=#6c8ebf;fillColor=#dae8fc;align=left;verticalAlign=middle;spacingLeft=4;spacingRight=4;overflow=hidden;points=[[0,0.5],[1,0.5]];portConstraint=eastwest;rotatable=0;whiteSpace=wrap;html=1;" vertex="1" parent="1">
          <mxGeometry x="2007" y="561" width="190" height="30" as="geometry" />
        </mxCell>
        <mxCell id="fVzrqugEwrlbRKcadym2-79" value="" style="text;strokeColor=#6c8ebf;fillColor=#dae8fc;align=left;verticalAlign=middle;spacingLeft=4;spacingRight=4;overflow=hidden;points=[[0,0.5],[1,0.5]];portConstraint=eastwest;rotatable=0;whiteSpace=wrap;html=1;" vertex="1" parent="1">
          <mxGeometry x="2007" y="591" width="190" height="30" as="geometry" />
        </mxCell>
        <mxCell id="fVzrqugEwrlbRKcadym2-80" value="" style="text;strokeColor=#6c8ebf;fillColor=#dae8fc;align=left;verticalAlign=middle;spacingLeft=4;spacingRight=4;overflow=hidden;points=[[0,0.5],[1,0.5]];portConstraint=eastwest;rotatable=0;whiteSpace=wrap;html=1;" vertex="1" parent="1">
          <mxGeometry x="2007" y="621" width="190" height="30" as="geometry" />
        </mxCell>
      </root>
    </mxGraphModel>
  </diagram>
</mxfile>
